<svg xmlns="http://www.w3.org/2000/svg" fill="none" viewBox="0 0 59 16" height="16" width="59">
<path fill="#475569" d="M7.51761 0.550293L0.968262 15.0438H8.80875L9.78074 12.7329H12.0025L12.9745 15.0438H21.6047V13.2801L22.3737 15.0438H26.8379L27.6069 13.2428V15.0438H45.5553L47.7377 12.7929L49.7813 15.0438L58.9999 15.0624L52.4299 7.8375L58.9999 0.550293H49.9242L47.7998 2.75955L45.8206 0.550293H26.295L24.6184 4.29119L22.9024 0.550293H15.0783V2.254L14.2079 0.550293H7.51761ZM34.3199 2.60839H44.6267L47.7791 6.01355L51.0331 2.60839H54.1855L49.3957 7.83546L54.1855 13.0023H50.8901L47.7377 9.55759L44.4671 13.0023H34.3199V2.60839ZM36.8651 6.66023V4.76171V4.75989H43.2962L46.1024 7.79611L43.1719 10.8489H36.8651V8.77629H42.4879V6.66023H36.8651ZM9.0347 2.60839H12.8565L17.2007 12.4365V2.60839H21.3874L24.7427 9.6551L27.8351 2.60839H32.0008V13.0084H29.4661L29.4454 4.85902L25.7499 13.0084H23.4825L19.7664 4.85902V13.0084H14.5518L13.5632 10.6769H8.22228L7.23574 13.0064H4.44184L9.0347 2.60839ZM9.13425 8.52149L10.8939 4.36802L12.6515 8.52149H9.13425Z" clip-rule="evenodd" fill-rule="evenodd"></path>
</svg>
