<svg xmlns="http://www.w3.org/2000/svg" fill="none" viewBox="0 0 51 22" height="22" width="51">
<path fill="#475569" d="M6.99564 4.2541C7.93572 4.3334 8.87581 3.77829 9.46336 3.0745C10.0411 2.35088 10.423 1.37944 10.3251 0.388184C9.49273 0.427834 8.46452 0.943289 7.87697 1.66691C7.33838 2.2914 6.87813 3.30249 6.99564 4.2541ZM18.1787 17.0215V1.56778H23.9073C26.8647 1.56778 28.9309 3.6296 28.9309 6.64303C28.9309 9.65646 26.8255 11.7381 23.829 11.7381H20.5485V17.0215H18.1787ZM10.3152 4.44243C9.48703 4.39418 8.73134 4.69456 8.12095 4.93718C7.72814 5.09331 7.39551 5.22553 7.14245 5.22553C6.85847 5.22553 6.51212 5.08625 6.12324 4.92987L6.12323 4.92986L6.12322 4.92986L6.12321 4.92985C5.61364 4.72494 5.03106 4.49066 4.42013 4.50191C3.0198 4.52173 1.71739 5.32465 1.00254 6.60338C-0.466338 9.16083 0.620632 12.9474 2.04055 15.0291C2.73582 16.06 3.56818 17.19 4.66494 17.1504C5.14745 17.132 5.49454 16.9829 5.85375 16.8286C6.26729 16.6509 6.69689 16.4664 7.36768 16.4664C8.01521 16.4664 8.42603 16.6461 8.82038 16.8187C9.19535 16.9827 9.55544 17.1402 10.09 17.1306C11.2259 17.1107 11.9408 16.0996 12.6361 15.0687C13.3864 13.9623 13.7161 12.8824 13.7661 12.7186L13.772 12.6996C13.7708 12.6984 13.7615 12.6941 13.7452 12.6865C13.4943 12.5703 11.5773 11.6819 11.5589 9.2996C11.5404 7.30001 13.0794 6.2869 13.3217 6.12741C13.3365 6.1177 13.3464 6.11116 13.3509 6.10775C12.3717 4.64068 10.844 4.48208 10.3152 4.44243ZM33.2593 17.1405C34.7478 17.1405 36.1285 16.3772 36.7552 15.1679H36.8042V17.0215H38.9977V9.32935C38.9977 7.09901 37.2351 5.66169 34.5225 5.66169C32.0058 5.66169 30.1453 7.11884 30.0767 9.12118H32.2115C32.3878 8.16957 33.2593 7.54508 34.454 7.54508C35.9033 7.54508 36.716 8.22905 36.716 9.48795V10.3404L33.7587 10.5189C31.007 10.6874 29.5185 11.8273 29.5185 13.8098C29.5185 15.8122 31.056 17.1405 33.2593 17.1405ZM33.8956 15.3066C32.6324 15.3066 31.8294 14.6921 31.8294 13.7504C31.8294 12.7789 32.603 12.2139 34.0817 12.1247L36.7159 11.9562V12.8285C36.7159 14.2757 35.5016 15.3066 33.8956 15.3066ZM46.2735 17.6262C45.3236 20.3323 44.2366 21.2245 41.9256 21.2245C41.7493 21.2245 41.1618 21.2046 41.0247 21.165V19.3113C41.1716 19.3312 41.5339 19.351 41.7199 19.351C42.7677 19.351 43.3553 18.9049 43.7176 17.7451L43.933 17.0612L39.9181 5.81039H42.3956L45.1865 14.9399H45.2355L48.0263 5.81039H50.4353L46.2735 17.6262ZM20.5483 3.58995H23.2804C25.3368 3.58995 26.5119 4.70016 26.5119 6.65294C26.5119 8.60572 25.3368 9.72585 23.2706 9.72585H20.5483V3.58995Z" clip-rule="evenodd" fill-rule="evenodd"></path>
</svg>
