<svg xmlns="http://www.w3.org/2000/svg" fill="none" viewBox="0 0 50 22" height="22" width="50">
<path fill="#475569" d="M44.9941 13.7383H45.0293L47.9482 6.41211H50L43.6934 21.1006H41.7471L44.0918 15.9619L39.9531 6.41211H42.0049L44.9941 13.7383ZM35.123 6.0791C36.5181 6.0791 37.6208 6.45969 38.4297 7.20898C39.2384 7.95826 39.6367 9.00518 39.6367 10.3252V16.6162H37.8311V15.2012H37.749C36.9636 16.3666 35.9321 16.9492 34.6309 16.9492C33.529 16.9492 32.5911 16.6162 31.8525 15.9502C31.1259 15.3318 30.7159 14.4163 30.7393 13.4531C30.7393 12.3947 31.1375 11.562 31.9229 10.9316C32.7082 10.3013 33.7633 9.99224 35.0762 9.99219C36.2014 9.99219 37.116 10.2061 37.8428 10.6104V10.1699C37.8427 9.51593 37.5616 8.89782 37.0693 8.46973C36.5652 8.01777 35.9202 7.76758 35.252 7.76758C34.1971 7.76769 33.3644 8.22023 32.7549 9.12402L31.0908 8.06543C31.9817 6.74534 33.3296 6.07919 35.123 6.0791ZM26.1787 1.70215C27.386 1.67839 28.5583 2.1419 29.4141 2.99805C31.1256 4.61557 31.2311 7.33954 29.625 9.08789L29.4141 9.30176C28.5348 10.1462 27.4565 10.5742 26.1787 10.5742H23.0605V16.6162H21.1729V1.70215H26.1787ZM35.3701 11.5381C34.6081 11.5381 33.9631 11.728 33.4473 12.0967C32.9432 12.4653 32.6856 12.9294 32.6855 13.4883C32.6855 13.9878 32.9197 14.4519 33.3066 14.7373C33.7287 15.0703 34.2448 15.2492 34.7725 15.2373C35.5697 15.2373 36.3318 14.9156 36.8945 14.3447C37.5159 13.7501 37.832 13.048 37.832 12.2393C37.2458 11.7638 36.4251 11.5262 35.3701 11.5381ZM23.0605 8.74316H26.2266C26.9299 8.76685 27.6102 8.48107 28.0908 7.96973C29.0753 6.93511 29.0518 5.2705 28.0322 4.27148C27.5516 3.79582 26.9065 3.53329 26.2266 3.5332H23.0605V8.74316Z"></path>
<path fill="#475569" d="M16.5443 9.26624C16.5443 8.68346 16.4974 8.10067 16.4036 7.52979H8.4436V10.8243H13.0039C12.8163 11.8828 12.2067 12.8343 11.3158 13.429V15.5698H14.0355C15.6299 14.0831 16.5443 11.8828 16.5443 9.26624Z"></path>
<path fill="#475569" d="M8.44397 17.6393C10.7183 17.6393 12.6408 16.8781 14.0359 15.5698L11.3161 13.429C10.5541 13.9523 9.58111 14.2497 8.44397 14.2497C6.24002 14.2497 4.37605 12.7392 3.70783 10.7173H0.906006V12.9295C2.33623 15.8196 5.25528 17.6393 8.44397 17.6393Z"></path>
<path fill="#475569" d="M3.70803 10.7173C3.35628 9.65877 3.35628 8.50509 3.70803 7.43468V5.23438H0.905755C-0.301918 7.64876 -0.301918 10.5032 0.905755 12.9176L3.70803 10.7173Z"></path>
<path fill="#475569" d="M8.44397 3.90238C9.65145 3.87859 10.812 4.34244 11.6795 5.18688L14.0945 2.73681C12.5588 1.2858 10.5424 0.488938 8.44397 0.512725C5.25528 0.512725 2.33623 2.34433 0.906006 5.23445L3.70783 7.44665C4.37605 5.41286 6.24002 3.90238 8.44397 3.90238Z"></path>
</svg>
