<svg xmlns="http://www.w3.org/2000/svg" fill="none" viewBox="0 0 46 28" height="28" width="46">
<path fill="#475569" d="M31.7144 0C39.2515 4.69241e-05 45.3617 6.18101 45.3618 13.8057C45.3618 21.4305 39.2516 27.6123 31.7144 27.6123C28.3361 27.6123 25.2451 26.3694 22.8618 24.3125C20.4786 26.3694 17.3876 27.6123 14.0093 27.6123C6.47199 27.6123 0.361816 21.4305 0.361816 13.8057C0.36198 6.18101 6.47209 4.37972e-05 14.0093 0C17.3872 0 20.4787 1.24135 22.8618 3.29785C25.2449 1.24135 28.3364 0 31.7144 0Z"></path>
<path fill="#475569" d="M31.7144 0C39.2515 4.71848e-05 45.3617 6.18101 45.3618 13.8057C45.3618 21.4305 39.2516 27.6123 31.7144 27.6123C28.3361 27.6123 25.2451 26.3694 22.8618 24.3125C25.7958 21.7802 27.6567 18.013 27.6567 13.8057C27.6566 9.5981 25.7962 5.83006 22.8618 3.29785C25.2449 1.24135 28.3364 0 31.7144 0Z"></path>
<path fill="#475569" d="M22.8618 3.29834C25.7962 5.8306 27.6567 9.59854 27.6567 13.8062C27.6567 18.0135 25.7959 21.7807 22.8618 24.313C19.9278 21.7807 18.0669 18.0135 18.0669 13.8062C18.0669 9.59859 19.9275 5.8306 22.8618 3.29834Z"></path>
</svg>
