<svg xmlns="http://www.w3.org/2000/svg" fill="none" viewBox="0 0 82 22" height="22" width="82">
<path fill="#475569" d="M5.65903 20.3298L6.01322 18.0804L5.22433 18.062H1.45728L4.07521 1.46273C4.0832 1.41261 4.10971 1.36589 4.1483 1.33271C4.1869 1.29953 4.23641 1.28125 4.28788 1.28125H10.6397C12.7485 1.28125 14.2037 1.72005 14.9635 2.58614C15.3196 2.99244 15.5465 3.41701 15.6563 3.88426C15.7713 4.37454 15.7734 4.96028 15.661 5.67469L15.6528 5.72683V6.18458L16.0091 6.38639C16.3091 6.54551 16.5473 6.72767 16.7302 6.93624C17.035 7.28362 17.2321 7.72513 17.3153 8.24857C17.4013 8.78692 17.3729 9.42751 17.2321 10.1528C17.0695 10.987 16.8068 11.7136 16.452 12.3082C16.1255 12.856 15.7097 13.3103 15.2161 13.6625C14.7448 13.997 14.1847 14.251 13.5516 14.4136C12.938 14.5732 12.2385 14.6539 11.4713 14.6539H10.977C10.6235 14.6539 10.2801 14.7812 10.0107 15.0095C9.7405 15.2424 9.56155 15.5605 9.50678 15.9087L9.46955 16.1112L8.84382 20.0758L8.81536 20.2214C8.80795 20.2676 8.79508 20.2906 8.77618 20.3062C8.75922 20.3203 8.73485 20.3298 8.71107 20.3298H5.65903Z"></path>
<path fill="#475569" d="M16.3462 5.78027C16.3273 5.90148 16.3056 6.0254 16.2813 6.1527C15.4434 10.4534 12.5778 11.9391 8.91753 11.9391H7.05398C6.60642 11.9391 6.22923 12.2641 6.15944 12.7056L5.20525 18.7568L4.93508 20.472C4.88966 20.7618 5.11325 21.0232 5.40564 21.0232H8.7111C9.10252 21.0232 9.43488 20.7388 9.49648 20.3529L9.52903 20.1848L10.1514 16.2356L10.1914 16.019C10.2522 15.6317 10.5854 15.3473 10.9768 15.3473H11.4711C14.6735 15.3473 17.1805 14.0472 17.9132 10.2848C18.2193 8.71306 18.0608 7.40073 17.2509 6.47774C17.0058 6.19943 16.7017 5.96852 16.3462 5.78027Z"></path>
<path fill="#475569" d="M15.4697 5.432C15.3418 5.39475 15.2097 5.36089 15.0742 5.33043C14.9381 5.30064 14.7985 5.27423 14.6551 5.25121C14.1525 5.16994 13.6021 5.13135 13.0122 5.13135H8.03364C7.91103 5.13135 7.79465 5.15911 7.69037 5.20922C7.46074 5.31959 7.29017 5.53697 7.24885 5.80309L6.18959 12.5111L6.15918 12.7068C6.22897 12.2653 6.60616 11.9402 7.05372 11.9402H8.91727C12.5775 11.9402 15.4434 10.4538 16.281 6.15386C16.306 6.02655 16.327 5.90264 16.3459 5.78143C16.134 5.66902 15.9044 5.57286 15.6572 5.49091C15.5964 5.4706 15.5334 5.45097 15.4697 5.432Z"></path>
<path fill="#475569" d="M7.24881 5.80235C7.29014 5.53621 7.4609 5.31885 7.69033 5.20914C7.7954 5.15903 7.91119 5.13127 8.03361 5.13127H13.0124C13.6022 5.13127 14.1527 5.16986 14.655 5.25113C14.7987 5.27415 14.9383 5.30056 15.0743 5.33035C15.2098 5.36083 15.3418 5.39469 15.4699 5.43192C15.5334 5.45089 15.5964 5.47052 15.658 5.49017C15.9051 5.5721 16.1348 5.66894 16.3467 5.78067C16.596 4.19137 16.3447 3.10926 15.4855 2.1294C14.5381 1.05069 12.8281 0.588867 10.6402 0.588867H4.28819C3.84122 0.588867 3.46012 0.91389 3.39092 1.35608L0.745314 18.126C0.693072 18.4578 0.949018 18.7572 1.28352 18.7572H5.20515L6.18975 12.5103L7.24881 5.80235Z"></path>
<path fill="#475569" d="M28.7326 6.02344H24.4065C24.1105 6.02344 23.8587 6.2412 23.8126 6.53689L22.0629 17.7647C22.0281 17.9863 22.1976 18.186 22.4197 18.186H24.485C24.781 18.186 25.0328 17.9682 25.0789 17.6719L25.5508 14.6437C25.5964 14.3471 25.8488 14.1296 26.1442 14.1296H27.5136C30.3634 14.1296 32.0079 12.7339 32.4376 9.96809C32.6311 8.75809 32.4458 7.80733 31.8858 7.1413C31.2711 6.41038 30.1804 6.02344 28.7326 6.02344ZM29.2317 10.1242C28.9951 11.6954 27.8091 11.6954 26.6622 11.6954H26.0094L26.4674 8.76105C26.4946 8.58388 26.6464 8.45322 26.8235 8.45322H27.1227C27.9039 8.45322 28.6409 8.45322 29.0218 8.90386C29.2487 9.17288 29.3183 9.57226 29.2317 10.1242ZM41.6642 10.0739H39.5925C39.416 10.0739 39.2635 10.2045 39.2363 10.382L39.1446 10.9683L38.9997 10.7559C38.5513 10.097 37.5513 9.87684 36.5531 9.87684C34.2637 9.87684 32.3085 11.6317 31.9277 14.0935C31.7298 15.3213 32.0111 16.4954 32.6993 17.3143C33.3308 18.0672 34.2341 18.3809 35.3087 18.3809C37.1532 18.3809 38.1763 17.1804 38.1763 17.1804L38.0838 17.7632C38.049 17.986 38.2184 18.1857 38.4392 18.1857H40.3053C40.6021 18.1857 40.8524 17.9679 40.8993 17.6716L42.0189 10.4952C42.0544 10.2744 41.8855 10.0739 41.6642 10.0739ZM38.7764 14.1548C38.5765 15.3527 37.6371 16.1568 36.4392 16.1568C35.8377 16.1568 35.3567 15.9615 35.0482 15.5915C34.742 15.2241 34.6255 14.7009 34.723 14.1184C34.9097 12.9306 35.8649 12.1004 37.0446 12.1004C37.6327 12.1004 38.111 12.298 38.426 12.6713C38.7416 13.0485 38.8668 13.5747 38.7764 14.1548ZM50.6155 10.0736H52.6974C52.989 10.0736 53.159 10.4045 52.9934 10.6466L46.0694 20.7621C45.9573 20.926 45.7726 21.0234 45.5753 21.0234H43.4961C43.2033 21.0234 43.0324 20.6898 43.2019 20.4472L45.3578 17.3671L43.0649 10.5562C42.9855 10.3195 43.1583 10.0736 43.4071 10.0736H45.4527C45.7185 10.0736 45.9529 10.2502 46.0296 10.5076L47.2465 14.6211L50.1179 10.3405C50.2303 10.1734 50.4171 10.0736 50.6155 10.0736Z" clip-rule="evenodd" fill-rule="evenodd"></path>
<path fill="#475569" d="M74.344 18.3752L76.2082 6.3482C76.2368 6.16151 76.3963 6.02406 76.5817 6.02344H78.6804C78.9122 6.02344 79.0901 6.23412 79.0536 6.46725L77.2152 18.2776C77.1672 18.5893 76.9029 18.8184 76.5915 18.8184H74.7171C74.4854 18.8184 74.3074 18.6083 74.344 18.3752ZM60.0667 6.02406H55.5234C55.2132 6.02406 54.9489 6.25314 54.9003 6.56418L53.0631 18.3752C53.0266 18.6083 53.2045 18.8184 53.4366 18.8184H55.7677C55.9844 18.8184 56.1698 18.6582 56.2036 18.44L56.7249 15.0921C56.7728 14.7801 57.0378 14.5513 57.3479 14.5513H58.7852C61.7781 14.5513 63.5047 13.083 63.9562 10.1736C64.16 8.90076 63.9642 7.90061 63.3765 7.19998C62.7313 6.4311 61.587 6.02406 60.0667 6.02406ZM60.5908 10.3379C60.343 11.9906 59.0975 11.9906 57.8926 11.9906H57.2078L57.6894 8.90388C57.718 8.7175 57.876 8.58005 58.0626 8.58005H58.3767C59.1965 8.58005 59.9711 8.58005 60.3707 9.0541C60.6092 9.33709 60.6817 9.75723 60.5908 10.3379ZM73.6441 10.2849H71.4703C71.2834 10.2849 71.1248 10.4223 71.0968 10.609L71.0006 11.2258L70.8479 11.0023C70.377 10.3092 69.3276 10.0776 68.2794 10.0776C65.8755 10.0776 63.8231 11.9236 63.4232 14.5133C63.216 15.8048 63.5102 17.04 64.2328 17.9014C64.8971 18.6934 65.8444 19.0234 66.9728 19.0234C68.9096 19.0234 69.9835 17.7606 69.9835 17.7606L69.8867 18.3736C69.8501 18.608 70.0281 18.818 70.2614 18.818H72.22C72.5301 18.818 72.7945 18.589 72.843 18.2773L74.0194 10.7281C74.0553 10.4959 73.8774 10.2849 73.6441 10.2849ZM70.6121 14.5778C70.4034 15.8379 69.4158 16.6837 68.1577 16.6837C67.5273 16.6837 67.0214 16.4784 66.6971 16.0891C66.3756 15.7026 66.2548 15.1522 66.3559 14.5395C66.5529 13.29 67.5547 12.4167 68.7934 12.4167C69.4112 12.4167 69.9131 12.6246 70.2442 13.0173C70.5768 13.414 70.7083 13.9676 70.6121 14.5778Z" clip-rule="evenodd" fill-rule="evenodd"></path>
</svg>
