<svg xmlns="http://www.w3.org/2000/svg" fill="none" viewBox="0 0 50 17" height="17" width="50">
<path fill="#475569" d="M12.9156 16.5033H8.67491L5.49495 4.37156C5.34401 3.8135 5.02354 3.32014 4.55212 3.08762C3.37566 2.50327 2.07928 2.03822 0.665039 1.80368V1.3366H7.49638C8.43921 1.3366 9.14633 2.03822 9.26418 2.85307L10.9141 11.6041L15.1527 1.3366H19.2755L12.9156 16.5033ZM21.6325 16.5033H17.6276L20.9254 1.3366H24.9304L21.6325 16.5033ZM30.1118 5.53824C30.2296 4.72137 30.9367 4.2543 31.7617 4.2543C33.0581 4.13703 34.4703 4.37157 35.6488 4.9539L36.3559 1.68844C35.1774 1.22136 33.881 0.986816 32.7045 0.986816C28.8174 0.986816 25.989 3.08763 25.989 6.00329C25.989 8.22138 27.9925 9.38603 29.4067 10.0876C30.9367 10.7872 31.526 11.2543 31.4081 11.9539C31.4081 13.0033 30.2296 13.4704 29.0532 13.4704C27.6389 13.4704 26.2247 13.1206 24.9304 12.5362L24.2232 15.8037C25.6375 16.386 27.1675 16.6206 28.5817 16.6206C32.9402 16.7358 35.6488 14.6371 35.6488 11.4868C35.6488 7.51976 30.1118 7.28724 30.1118 5.53824ZM49.665 16.5033L46.4851 1.3366H43.0694C42.3623 1.3366 41.6552 1.80368 41.4195 2.50327L35.5309 16.5033H39.6537L40.4766 14.2872H45.5423L46.0137 16.5033H49.665ZM43.6587 5.42098L44.8351 11.1371H41.5373L43.6587 5.42098Z" clip-rule="evenodd" fill-rule="evenodd"></path>
</svg>
