<svg xmlns="http://www.w3.org/2000/svg" fill="none" viewBox="0 0 4001 1325" height="1325" width="4001">
<path fill="black" d="M1295.44 6.5C1296.28 7.325 1297.13 8.15 1298 9C1298.84 9.73477 1298.84 9.73477 1299.69 10.4844C1320.42 30.7218 1317.66 75.9512 1318.13 102.441C1319.13 188.64 1308.04 275.295 1264.86 600.749C1264.24 605.124 1263.62 609.5 1263 613.875C1262.85 614.959 1262.69 616.042 1262.53 617.159C1242.28 758.809 1242.28 758.809 1214.11 1021.05C1214.01 1022.85 1213.9 1024.66 1213.79 1026.46C1208.06 1087.89 1208.06 1087.89 1225.25 1144.38C1234.45 1153.16 1246.33 1153.55 1258.37 1153.29C1287.86 1152.07 1317.72 1138.41 1344 1126C1346 1125.07 1348.01 1124.15 1350.01 1123.22C1362.37 1117.46 1374.36 1111.13 1386.28 1104.5C1388.97 1103.02 1391.68 1101.55 1394.39 1100.1C1407.47 1093.08 1420.23 1085.6 1432.91 1077.88C1435.91 1076.06 1438.92 1074.24 1441.92 1072.43C1455.07 1064.48 1468.08 1056.32 1481 1048C1481.8 1047.49 1482.6 1046.97 1483.42 1046.44C1524.29 1020.15 1564.38 992.586 1603.73 964.082C1606.9 961.789 1610.08 959.513 1613.27 957.248C1621.78 951.205 1630.16 945.008 1638.55 938.806C1640.93 937.05 1643.32 935.301 1645.7 933.555C1654.93 926.791 1664.07 919.927 1673.15 912.972C1679.03 908.477 1684.96 904.06 1690.94 899.688C1698.2 894.371 1705.31 888.896 1712.35 883.301C1719.81 877.415 1727.38 871.676 1735 866C1735 869.509 1734.38 870.212 1732.32 872.957C1731.75 873.733 1731.17 874.508 1730.58 875.307C1729.96 876.134 1729.33 876.961 1728.69 877.812C1727.73 879.094 1727.73 879.094 1726.75 880.402C1718.69 891.144 1710.33 901.625 1701.84 912.029C1698.27 916.421 1694.74 920.849 1691.25 925.312C1684.38 934.091 1677.3 942.675 1670.08 951.167C1667.2 954.56 1664.37 957.983 1661.56 961.438C1657.61 966.3 1653.54 971.058 1649.44 975.804C1646.38 979.364 1643.38 982.967 1640.44 986.625C1636.34 991.678 1631.98 996.453 1627.56 1001.22C1624.9 1004.11 1622.31 1007.04 1619.74 1010.01C1616.93 1013.23 1614.05 1016.39 1611.18 1019.57C1609.31 1021.66 1607.46 1023.76 1605.63 1025.88C1601.32 1030.82 1596.86 1035.63 1592.42 1040.45C1591.07 1041.92 1589.72 1043.4 1588.38 1044.88C1567.55 1067.68 1567.55 1067.68 1557.34 1077.59C1555.43 1079.56 1553.64 1081.56 1551.86 1083.64C1548.05 1088 1544.04 1092.11 1539.94 1096.19C1539.19 1096.94 1538.45 1097.69 1537.68 1098.46C1536.1 1100.03 1534.53 1101.6 1532.96 1103.17C1530.57 1105.56 1528.19 1107.94 1525.8 1110.33C1524.27 1111.87 1522.73 1113.41 1521.19 1114.94C1520.49 1115.65 1519.79 1116.35 1519.06 1117.08C1515.09 1121.03 1511.02 1124.81 1506.77 1128.45C1504.04 1130.84 1501.52 1133.41 1499 1136C1495.17 1139.93 1491.21 1143.6 1487.06 1147.19C1483.68 1150.16 1480.44 1153.28 1477.19 1156.38C1471.83 1161.44 1466.41 1166.24 1460.64 1170.83C1457.66 1173.28 1454.82 1175.87 1452 1178.5C1447.42 1182.76 1442.7 1186.78 1437.82 1190.7C1435.34 1192.73 1432.9 1194.79 1430.47 1196.88C1423.66 1202.73 1416.61 1208.2 1409.45 1213.61C1406.47 1215.87 1403.52 1218.16 1400.58 1220.48C1391.38 1227.76 1381.98 1234.57 1372.24 1241.12C1368.99 1243.31 1365.82 1245.58 1362.69 1247.94C1303.62 1291.28 1221.53 1333.04 1146.13 1323.18C1123.99 1319.76 1105.11 1308.61 1091.81 1290.56C1041.01 1217.8 1059.71 1099.35 1088.71 896.559C1099.84 834.458 1112.69 772.653 1125.51 710.881C1160.53 590.217 1160.53 590.217 1153.51 471.961C1151.59 469.464 1150.01 468.855 1147 468C1131.63 468 1119.73 480.351 1109.5 490.469C1055.87 547.946 1018.63 626.062 979.992 693.767C973.315 705.465 966.59 717.134 959.851 728.795C958.006 731.991 956.165 735.188 954.325 738.387C944.97 754.642 935.525 770.843 926 787C925.609 787.664 925.218 788.328 924.814 789.012C915.242 805.246 905.625 821.443 895.619 837.415C893.863 840.22 892.113 843.03 890.364 845.84C887.194 850.929 884.013 856.012 880.825 861.09C879.663 862.944 878.502 864.799 877.344 866.656C862.397 890.605 846.585 914.151 830 937C829.451 937.757 828.902 938.515 828.336 939.295C820.771 949.702 813.055 959.966 805 970C804.497 970.63 803.993 971.259 803.475 971.908C786.217 993.46 768.118 1015.11 747 1033C746.141 1033.75 745.281 1034.5 744.395 1035.27C717.415 1058.39 688.149 1073.55 652 1071C638.431 1069.37 625.965 1062.08 616 1053C615.107 1052.19 614.214 1051.38 613.293 1050.54C563.204 1002.76 552.181 915.156 538.53 850.689C526.063 781.532 526.063 781.532 500 717C499.107 715.442 499.107 715.442 498.196 713.852C492.264 704.017 485.986 697.662 475 694C461.943 692.266 451.059 699.478 441 707C436.537 710.517 432.249 714.229 428 718C427.495 718.447 426.99 718.895 426.469 719.356C416.412 728.31 406.518 737.647 397.797 747.922C395.931 750.081 394.002 752.175 392.06 754.267C387.298 759.398 382.763 764.642 378.372 770.098C375.682 773.39 372.909 776.6 370.125 779.812C365.67 784.972 361.387 790.237 357.207 795.622C354.313 799.347 351.362 803.017 348.366 806.66C342.253 814.096 336.411 821.699 330.669 829.423C326.417 835.135 322.084 840.773 317.688 846.375C313.26 852.03 308.957 857.741 304.821 863.612C301.345 868.543 297.776 873.4 294.188 878.25C283.728 892.412 273.468 906.7 263.395 921.141C260.323 925.544 257.228 929.93 254.125 934.312C240.872 953.064 227.864 971.979 215 991C214.491 991.753 213.981 992.507 213.457 993.283C209.365 999.333 205.276 1005.38 201.188 1011.44C200.339 1012.69 200.339 1012.69 199.473 1013.98C186.758 1032.8 174.185 1051.72 161.688 1070.69C161.052 1071.65 160.416 1072.62 159.76 1073.61C150.468 1087.72 141.193 1101.83 132 1116C131.537 1116.71 131.073 1117.43 130.596 1118.16C123.985 1128.33 117.442 1138.55 110.907 1148.77C107.081 1154.76 103.242 1160.73 99.3755 1166.69C89.2671 1182.27 79.3633 1197.98 69.455 1213.7C68.0096 1215.99 66.562 1218.27 65.1137 1220.56C52.896 1239.87 40.8158 1259.26 28.8559 1278.73C25.3136 1284.5 21.7538 1290.25 18.188 1296C12.4174 1305.31 6.69876 1314.65 1.00045 1324C0.00045377 1321 0.000487149 1321 0.95834 1318.47C1.72561 1316.94 1.72562 1316.94 2.50839 1315.38C3.08997 1314.2 3.67152 1313.03 4.27072 1311.83C4.9289 1310.53 5.58726 1309.23 6.24582 1307.93C6.92979 1306.56 7.61296 1305.19 8.29525 1303.82C10.1567 1300.09 12.0305 1296.37 13.9067 1292.65C15.8749 1288.74 17.832 1284.82 19.7904 1280.91C23.0904 1274.32 26.3977 1267.73 29.7102 1261.15C34.3492 1251.93 38.9747 1242.7 43.5976 1233.47C46.8253 1227.03 50.0564 1220.58 53.2879 1214.14C54.0642 1212.6 54.8405 1211.05 55.6167 1209.5C71.3444 1178.15 71.3443 1178.15 79.013 1163.76C82.305 1157.57 85.3952 1151.28 88.5005 1145C92.8798 1136.14 97.3739 1127.35 101.996 1118.62C107.399 1108.38 112.629 1098.06 117.875 1087.75C125.409 1072.94 133.014 1058.18 140.717 1043.45C143.493 1038.14 146.246 1032.82 149 1027.5C150.768 1024.09 152.536 1020.68 154.304 1017.27C155.402 1015.15 156.499 1013.04 157.595 1010.92C162.855 1000.76 168.168 990.644 173.688 980.625C178.802 971.339 183.669 961.935 188.5 952.5C193.786 942.178 199.153 931.918 204.754 921.762C208.264 915.389 211.653 908.96 215 902.5C219.306 894.196 223.719 885.961 228.219 877.762C232.542 869.874 236.777 861.941 241 854C246.628 843.422 252.312 832.877 258.067 822.367C260.711 817.537 263.333 812.695 265.95 807.85C271.428 797.712 276.962 787.61 282.58 777.549C284.211 774.623 285.836 771.695 287.461 768.766C295.361 754.529 303.294 740.311 311.258 726.11C313.03 722.947 314.799 719.783 316.567 716.617C323.97 703.368 331.434 690.157 339 677C339.579 675.994 340.158 674.987 340.754 673.95C349.163 659.332 357.622 644.744 366.138 630.187C367.767 627.4 369.393 624.611 371.018 621.821C381.154 604.429 391.488 587.167 402 570C402.703 568.852 403.405 567.704 404.108 566.556C412.13 553.45 420.215 540.387 428.461 527.422C430.145 524.773 431.823 522.121 433.5 519.469C440.202 508.887 446.977 498.371 454 488C454.634 487.062 455.267 486.124 455.92 485.158C472.242 461.003 472.242 461.003 479.687 450.801C480.649 449.482 481.607 448.162 482.564 446.84C490.704 435.599 499.11 424.657 508 414C508.492 413.404 508.984 412.808 509.491 412.193C539.24 376.168 539.24 376.168 555.579 373.594C563.034 373.332 567.492 374.962 573 380C614.159 422.089 602.407 526.657 604.057 580.84C604.972 610.886 605.994 640.919 607.512 670.941C607.572 672.15 607.633 673.358 607.695 674.603C610.17 723.78 613.087 776.321 630 823C630.297 823.824 630.593 824.649 630.898 825.498C638.638 846.699 649.336 867.741 670.497 878.238C683.893 883.986 695.44 884.224 709 879C717.582 875.077 724.909 870.19 732 864C732.74 863.37 733.48 862.739 734.243 862.09C745.473 852.278 756.518 841.66 765.715 829.91C767.506 827.63 769.326 825.401 771.192 823.184C779.639 813.126 787.447 802.741 795 792C795.875 790.763 795.875 790.763 796.768 789.501C804.349 778.779 811.813 767.99 819 757C819.643 756.017 819.643 756.017 820.299 755.015C823.556 750.025 826.785 745.017 830 740C830.684 738.934 830.684 738.934 831.381 737.847C856.621 698.412 880.068 657.807 903 617C903.55 616.023 904.1 615.045 904.666 614.039C917.61 591.021 930.381 567.911 942.93 544.676C945.409 540.087 947.906 535.507 950.409 530.931C957.052 518.788 963.595 506.592 970.12 494.386C972.307 490.294 974.498 486.205 976.692 482.117C983.686 469.08 990.649 456.027 997.584 442.958C1002.51 433.669 1007.46 424.391 1012.44 415.125C1018 404.769 1023.51 394.39 1029 384C1036.34 370.112 1043.74 356.253 1051.17 342.412C1053.36 338.337 1055.54 334.259 1057.72 330.181C1060.53 324.929 1063.35 319.678 1066.16 314.427C1067.98 311.043 1069.79 307.656 1071.6 304.27C1077.61 293.041 1083.73 281.887 1090.04 270.823C1094.32 263.283 1098.43 255.655 1102.5 248C1108.59 236.57 1114.85 225.254 1121.28 214.014C1123.13 210.778 1124.97 207.538 1126.81 204.297C1135.43 189.117 1144.22 174.051 1153.17 159.062C1154.87 156.221 1156.56 153.376 1158.25 150.531C1164.47 140.079 1170.87 129.753 1177.41 119.497C1179.08 116.878 1180.73 114.25 1182.38 111.621C1196.86 88.5698 1212.36 65.7721 1230 45C1230.96 43.8595 1231.91 42.7189 1232.86 41.5781C1271.25 -4.05568 1271.25 -4.05569 1295.44 6.5Z"></path>
<path fill="black" d="M3813.88 252.922C3860.46 251.809 3904.54 260.332 3939.2 293.266C3977.63 330.734 3990.68 387.05 3993 439C3993.06 440.267 3993.12 441.533 3993.19 442.838C3993.34 446.274 3993.44 449.71 3993.51 453.149C3993.56 455.119 3993.64 457.088 3993.72 459.056C3993.83 471.071 3989.15 480.425 3980.94 489.062C3980.14 489.92 3979.35 490.777 3978.53 491.66C3972.13 497.585 3967.88 498.58 3959.41 498.481C3958.34 498.484 3957.27 498.488 3956.18 498.491C3952.6 498.498 3949.03 498.476 3945.45 498.454C3942.89 498.453 3940.33 498.454 3937.76 498.456C3932.25 498.457 3926.73 498.445 3921.22 498.423C3913.24 498.39 3905.26 498.38 3897.29 498.375C3884.35 498.366 3871.4 498.34 3858.46 498.302C3845.89 498.265 3833.32 498.237 3820.75 498.22C3819.98 498.219 3819.2 498.218 3818.41 498.217C3814.52 498.211 3810.63 498.206 3806.74 498.201C3774.49 498.16 3742.25 498.089 3710 498C3710.13 498.871 3710.27 499.743 3710.41 500.641C3710.67 502.372 3710.67 502.372 3710.95 504.139C3711.12 505.278 3711.3 506.418 3711.48 507.592C3711.95 510.654 3712.41 513.717 3712.86 516.781C3717.99 550.317 3728.18 584.213 3756 606C3760.52 608.987 3765.16 611.572 3770 614C3771.62 614.818 3771.62 614.818 3773.27 615.652C3812.62 633.979 3862.61 629.725 3902.43 615.571C3914.67 611.006 3926.4 605.341 3938.09 599.538C3939.21 598.989 3939.21 598.989 3940.36 598.43C3941.76 597.742 3943.16 597.045 3944.55 596.336C3948.54 594.387 3951.57 593.503 3956 594C3966.41 599.315 3971.74 610.092 3977 620C3977.46 620.842 3977.92 621.684 3978.4 622.551C3981.11 627.952 3982.19 633 3981 639C3975.05 653.826 3955.19 662.153 3941.45 668.106C3908.05 681.83 3871.92 687.225 3836 687.25C3834.69 687.251 3834.69 687.251 3833.35 687.252C3794.98 687.205 3755.97 681.897 3722 663C3720.94 662.425 3719.88 661.85 3718.78 661.258C3681.53 640.423 3658.65 604.517 3646.9 564.276C3639.93 538.795 3636.57 512.384 3636 486C3635.98 485.01 3635.96 484.02 3635.93 483C3634.73 417.615 3645.03 348.9 3692 300C3724.34 267.931 3769.06 254.137 3813.88 252.922ZM3745.81 340.75C3740.45 346.322 3736.05 352.438 3732 359C3731.65 359.563 3731.3 360.126 3730.95 360.706C3722.32 374.99 3717.67 390.838 3714.19 407.062C3713.99 407.958 3713.8 408.853 3713.6 409.775C3711.64 419.518 3711 428.976 3710 439C3779.3 439 3848.6 439 3920 439C3920 405.243 3915.49 369.384 3894 342C3893.48 341.318 3892.96 340.636 3892.43 339.934C3879.95 324.529 3859.71 315.46 3840.3 313.316C3805.36 309.876 3771.93 315.994 3745.81 340.75Z"></path>
<path fill="black" d="M2781.06 288.375C2782.72 289.908 2784.36 291.45 2786 293C2786.81 293.748 2787.62 294.495 2788.46 295.266C2829.43 334.299 2839.51 397.845 2840.93 451.704C2840.99 453.77 2841.09 455.834 2841.2 457.898C2841.66 471.26 2835.79 480.329 2827.1 490.145C2822.66 494.751 2818.99 498.118 2812.34 498.369C2810.42 498.382 2808.49 498.378 2806.57 498.361C2804.97 498.365 2804.97 498.365 2803.35 498.369C2799.78 498.373 2796.22 498.357 2792.66 498.341C2790.1 498.34 2787.55 498.34 2785 498.342C2779.5 498.343 2774 498.334 2768.51 498.317C2760.56 498.293 2752.61 498.285 2744.66 498.281C2731.76 498.275 2718.86 498.255 2705.97 498.226C2693.44 498.199 2680.91 498.178 2668.38 498.165C2667.61 498.164 2666.84 498.163 2666.04 498.162C2662.17 498.158 2658.29 498.155 2654.42 498.151C2622.28 498.12 2590.14 498.067 2558 498C2558.46 501.792 2558.93 505.584 2559.39 509.375C2559.52 510.436 2559.65 511.497 2559.79 512.59C2563.33 541.215 2570.46 570.882 2590 593C2590.78 593.978 2591.57 594.957 2592.37 595.965C2608.37 615.154 2636.24 623.018 2660 626C2661.51 626.197 2661.51 626.197 2663.06 626.398C2708.56 631.174 2748.82 617.624 2789.18 597.969C2790.32 597.422 2791.46 596.876 2792.63 596.312C2793.55 595.855 2794.47 595.397 2795.41 594.926C2798.51 593.818 2800.74 593.632 2804 594C2812.8 599.117 2818.6 608.916 2823.31 617.625C2823.65 618.246 2823.99 618.868 2824.34 619.508C2827.86 626.234 2830.06 632.499 2828 640C2818.52 658.964 2791.1 667.651 2772.46 673.875C2720.79 690.567 2662.64 692.475 2610 679C2609.23 678.807 2608.46 678.614 2607.66 678.415C2596.22 675.501 2585.61 671.15 2575 666C2573.98 665.506 2573.98 665.506 2572.94 665.003C2559.78 658.526 2548.66 650.075 2538 640C2536.69 638.805 2536.69 638.805 2535.36 637.586C2506.93 610.661 2494.21 571.464 2487.75 533.875C2487.52 532.574 2487.52 532.574 2487.29 531.247C2484.21 512.086 2483.63 492.871 2483.69 473.5C2483.69 472.316 2483.69 471.132 2483.69 469.912C2483.81 423.895 2490.07 378.041 2512 337C2512.81 335.461 2512.81 335.461 2513.65 333.891C2522.5 317.94 2534.68 302.371 2549 291C2550 290.192 2551 289.384 2552.02 288.551C2612.36 241.164 2721.92 236.192 2781.06 288.375ZM2592.63 341.305C2571.74 363.388 2563.47 392.686 2559 422C2558.89 422.693 2558.79 423.386 2558.67 424.1C2557.95 429.196 2558 433.732 2558 439C2626.97 439 2695.94 439 2767 439C2767.11 423.272 2767.11 423.272 2765.88 407.75C2765.74 406.708 2765.61 405.665 2765.48 404.592C2761.78 377.512 2752.85 349.011 2731 331C2690.83 300.995 2628.18 306.748 2592.63 341.305Z"></path>
<path fill="black" d="M1694.26 299.555C1696.59 301.636 1698.8 303.779 1701 306C1701.02 305.073 1701.04 304.145 1701.06 303.189C1701.14 299.715 1701.23 296.241 1701.32 292.768C1701.36 291.27 1701.39 289.773 1701.42 288.275C1701.47 286.11 1701.53 283.946 1701.59 281.781C1701.62 280.483 1701.65 279.184 1701.68 277.846C1702.08 273.072 1702.59 268.033 1705.38 264.012C1717.18 254.392 1734.2 255.085 1748.65 256.309C1756.59 257.354 1763.5 258.855 1768.94 265.062C1771.72 269.022 1772.13 271.665 1772.13 276.382C1772.14 278.069 1772.14 278.069 1772.15 279.789C1772.15 281.03 1772.15 282.27 1772.15 283.549C1772.15 284.863 1772.15 286.177 1772.16 287.531C1772.17 291.187 1772.17 294.843 1772.17 298.499C1772.18 302.44 1772.19 306.381 1772.19 310.322C1772.21 317.16 1772.22 323.998 1772.23 330.835C1772.24 340.752 1772.27 350.668 1772.29 360.585C1772.33 376.713 1772.36 392.842 1772.39 408.97C1772.4 409.936 1772.4 410.902 1772.4 411.897C1772.43 425.554 1772.45 439.21 1772.47 452.866C1772.47 453.825 1772.48 454.783 1772.48 455.77C1772.48 457.206 1772.48 457.206 1772.48 458.671C1772.51 474.708 1772.54 490.745 1772.58 506.783C1772.61 516.654 1772.63 526.525 1772.64 536.396C1772.64 543.188 1772.66 549.98 1772.68 556.772C1772.69 560.674 1772.7 564.576 1772.7 568.478C1772.7 595.653 1773.96 622.247 1779 649C1779.37 650.971 1779.74 652.942 1780.1 654.914C1780.27 655.786 1780.43 656.658 1780.6 657.557C1781.43 662.616 1781.73 666.48 1779.44 671.25C1772.03 679.605 1758.65 682.438 1747.85 683.14C1745.4 683.241 1742.95 683.284 1740.5 683.312C1739.67 683.342 1738.84 683.371 1737.99 683.4C1732.47 683.457 1729.33 682.735 1725 679C1715.43 668.746 1713.31 652.707 1710.54 639.481C1709.78 635.964 1708.9 632.485 1708 629C1707.19 629.834 1706.38 630.668 1705.54 631.527C1681.3 656.259 1652.58 673.84 1619.06 682.875C1618.36 683.066 1617.65 683.257 1616.92 683.454C1605.22 686.404 1593.47 687.368 1581.44 687.312C1579.48 687.304 1579.48 687.304 1577.48 687.295C1540.94 686.842 1508.26 675.841 1482 650C1481.29 649.318 1480.59 648.636 1479.86 647.934C1466.76 634.33 1459.13 616.391 1454.25 598.438C1454.05 597.707 1453.85 596.976 1453.65 596.223C1450.11 582.374 1449.71 568.812 1449.73 554.618C1449.72 552.598 1449.72 550.577 1449.71 548.557C1449.7 543.106 1449.7 537.656 1449.7 532.205C1449.7 527.636 1449.7 523.066 1449.69 518.497C1449.68 507.705 1449.68 496.912 1449.68 486.12C1449.69 475.032 1449.68 463.944 1449.66 452.856C1449.64 443.297 1449.63 433.737 1449.64 424.177C1449.64 418.485 1449.64 412.794 1449.62 407.102C1449.61 401.743 1449.61 396.384 1449.62 391.024C1449.63 389.073 1449.62 387.122 1449.62 385.171C1449.55 369.107 1450.84 353.224 1455.69 337.812C1455.94 336.992 1456.19 336.172 1456.45 335.326C1459.11 327.093 1462.75 319.514 1467 312C1467.55 311.006 1468.11 310.012 1468.68 308.988C1483.42 284.276 1509.53 266.795 1537.09 259.592C1539.39 259.032 1541.69 258.507 1544 258C1544.73 257.836 1545.46 257.673 1546.21 257.504C1600.17 245.978 1653.31 264.261 1694.26 299.555ZM1556 324C1555.15 324.452 1554.3 324.905 1553.43 325.371C1537.33 334.455 1527.24 348.547 1522.07 366.172C1520.04 373.951 1518.88 381.434 1518.86 389.492C1518.86 390.213 1518.85 390.935 1518.85 391.678C1518.84 394.079 1518.84 396.48 1518.84 398.881C1518.83 400.609 1518.83 402.338 1518.82 404.067C1518.81 408.753 1518.8 413.44 1518.8 418.126C1518.8 421.061 1518.79 423.995 1518.79 426.93C1518.78 436.129 1518.77 445.329 1518.76 454.529C1518.76 465.113 1518.74 475.697 1518.71 486.282C1518.69 494.485 1518.68 502.688 1518.68 510.891C1518.68 515.78 1518.67 520.669 1518.65 525.557C1518.64 530.165 1518.63 534.772 1518.64 539.379C1518.64 541.057 1518.64 542.736 1518.63 544.414C1518.5 567.443 1523.06 589.087 1539.56 606.188C1556.67 623.073 1579.79 627.429 1603.05 627.366C1636.93 626.842 1666.89 608.718 1690 585C1690.64 584.372 1691.28 583.744 1691.93 583.098C1692.64 582.405 1693.34 581.713 1694.06 581C1694.71 580.361 1695.36 579.721 1696.04 579.062C1696.68 578.382 1697.33 577.701 1698 577C1698.69 576.302 1699.38 575.603 1700.09 574.884C1702.55 571.178 1702.57 568.096 1702.54 563.797C1702.55 562.975 1702.56 562.153 1702.57 561.306C1702.6 558.553 1702.6 555.801 1702.6 553.048C1702.61 551.073 1702.63 549.099 1702.64 547.124C1702.68 541.76 1702.7 536.397 1702.7 531.033C1702.71 527.68 1702.72 524.327 1702.73 520.974C1702.77 509.272 1702.79 497.57 1702.8 485.868C1702.8 474.969 1702.85 464.071 1702.92 453.172C1702.98 443.809 1703.01 434.446 1703.01 425.082C1703.01 419.492 1703.02 413.904 1703.07 408.314C1703.12 403.053 1703.12 397.794 1703.09 392.533C1703.09 390.607 1703.1 388.68 1703.13 386.755C1703.5 374.441 1703.5 374.441 1697.63 364.017C1696.11 362.654 1694.57 361.312 1693 360C1691.91 358.731 1690.84 357.443 1689.81 356.125C1670.4 334.106 1640.01 316.994 1610.53 314.734C1591.51 313.827 1573.02 314.677 1556 324Z"></path>
<path fill="black" d="M2977 262C2980.92 265.654 2982.84 268.991 2983.13 274.339C2983.13 275.21 2983.13 276.082 2983.13 276.979C2983.13 277.988 2983.14 278.997 2983.14 280.037C2983.14 281.143 2983.14 282.25 2983.14 283.39C2983.14 284.567 2983.14 285.744 2983.15 286.956C2983.15 290.225 2983.16 293.493 2983.16 296.762C2983.16 300.287 2983.17 303.812 2983.17 307.337C2983.19 313.449 2983.19 319.56 2983.2 325.671C2983.21 335.341 2983.23 345.011 2983.25 354.681C2983.26 357.992 2983.27 361.302 2983.28 364.612C2983.28 365.44 2983.28 366.267 2983.28 367.12C2983.3 376.539 2983.32 385.959 2983.34 395.379C2983.34 396.24 2983.34 397.101 2983.34 397.988C2983.37 411.92 2983.39 425.851 2983.41 439.783C2983.42 454.099 2983.45 468.415 2983.49 482.732C2983.51 491.553 2983.53 500.375 2983.53 509.196C2983.53 515.253 2983.54 521.309 2983.57 527.365C2983.58 530.852 2983.59 534.339 2983.58 537.827C2983.55 563.273 2985.58 586.33 3003.82 605.906C3021.72 623.071 3046.39 626.644 3070.13 626.34C3104.44 625.19 3133.16 604.573 3156.8 581.434C3157.52 580.631 3158.25 579.827 3159 579C3159.5 578.487 3159.99 577.974 3160.5 577.445C3165.69 571.484 3165.85 566.374 3165.74 558.689C3165.75 557.461 3165.75 556.234 3165.76 554.969C3165.77 551.577 3165.76 548.188 3165.74 544.797C3165.72 541.133 3165.73 537.47 3165.74 533.807C3165.76 527.464 3165.75 521.121 3165.73 514.779C3165.7 505.602 3165.7 496.425 3165.72 487.248C3165.74 472.349 3165.74 457.451 3165.72 442.552C3165.71 441.661 3165.71 440.77 3165.71 439.852C3165.71 438.514 3165.71 438.514 3165.71 437.148C3165.69 424.495 3165.68 411.841 3165.68 399.187C3165.68 398.296 3165.68 397.406 3165.68 396.488C3165.67 381.642 3165.68 366.795 3165.69 351.949C3165.7 342.794 3165.7 333.639 3165.68 324.484C3165.66 318.214 3165.66 311.944 3165.66 305.674C3165.67 302.056 3165.66 298.438 3165.65 294.82C3165.63 290.899 3165.63 286.978 3165.64 283.057C3165.63 281.913 3165.62 280.768 3165.61 279.589C3165.65 272.306 3166.36 267.703 3171.63 262.312C3183.23 253.405 3201.93 255.113 3215.44 256.75C3222.51 257.899 3228.08 259.565 3232.94 265C3235.89 269.294 3236.13 272.446 3236.13 277.595C3236.14 279.314 3236.14 279.314 3236.15 281.068C3236.15 282.328 3236.15 283.587 3236.15 284.886C3236.15 286.237 3236.15 287.589 3236.16 288.941C3236.17 292.659 3236.17 296.378 3236.17 300.096C3236.18 304.106 3236.19 308.116 3236.19 312.126C3236.21 319.08 3236.22 326.035 3236.23 332.989C3236.24 343.07 3236.27 353.151 3236.29 363.232C3236.33 379.622 3236.36 396.012 3236.39 412.402C3236.4 413.383 3236.4 414.365 3236.4 415.376C3236.43 429.262 3236.45 443.149 3236.47 457.035C3236.47 458.011 3236.48 458.986 3236.48 459.991C3236.48 461.452 3236.48 461.452 3236.48 462.942C3236.51 479.247 3236.54 495.551 3236.58 511.855C3236.61 521.894 3236.63 531.933 3236.64 541.972C3236.64 548.873 3236.66 555.775 3236.68 562.676C3236.69 566.645 3236.7 570.613 3236.7 574.582C3236.7 598.522 3237.66 621.944 3242.19 645.5C3242.76 648.466 3243.31 651.435 3243.86 654.406C3244.1 655.678 3244.34 656.95 3244.59 658.26C3245.16 663.459 3245.08 668.098 3242.44 672.75C3232.6 681.834 3216.54 683.335 3203.75 683.5C3202.97 683.518 3202.18 683.537 3201.37 683.556C3196.13 683.499 3193.12 682.478 3189 679C3178.46 667.549 3172.41 643.546 3173 628C3172.32 628.688 3171.63 629.377 3170.93 630.086C3135.29 665.676 3092.31 687.238 3041.38 687.251C3005.34 686.953 2970.89 675.717 2945.31 649.728C2920.04 623.051 2912.83 587.049 2912.86 551.398C2912.86 550.2 2912.85 549.001 2912.85 547.766C2912.84 544.48 2912.84 541.194 2912.84 537.907C2912.84 534.348 2912.83 530.788 2912.82 527.228C2912.81 519.469 2912.8 511.709 2912.8 503.949C2912.8 499.1 2912.79 494.251 2912.79 489.402C2912.78 475.961 2912.77 462.52 2912.76 449.079C2912.76 448.221 2912.76 447.363 2912.76 446.479C2912.76 445.62 2912.76 444.76 2912.76 443.874C2912.76 442.132 2912.76 440.39 2912.76 438.648C2912.76 437.784 2912.76 436.92 2912.76 436.03C2912.76 422.003 2912.74 407.976 2912.71 393.949C2912.69 379.529 2912.68 365.108 2912.68 350.688C2912.68 342.598 2912.67 334.509 2912.65 326.42C2912.64 319.54 2912.63 312.66 2912.64 305.779C2912.64 302.27 2912.64 298.762 2912.63 295.253C2912.62 291.449 2912.62 287.644 2912.63 283.84C2912.63 282.733 2912.62 281.626 2912.61 280.486C2912.66 273.032 2913.31 267.89 2918.56 262.25C2931.69 252.349 2963.85 252.421 2977 262Z"></path>
<path fill="black" d="M2092.31 276.062C2095.69 279.75 2097.8 282.844 2098.13 287.953C2097.25 302.78 2088.94 317.073 2079.44 328.004C2076.28 330.586 2074.05 331.44 2070 332C2067.27 330.992 2065.16 330.009 2062.69 328.562C2061.28 327.802 2059.86 327.049 2058.45 326.301C2057.72 325.915 2056.99 325.529 2056.24 325.131C2028.76 311.227 1994.14 306.692 1964.65 316.066C1950.65 321.037 1938.34 328.095 1931.11 341.434C1928.12 348.36 1926.46 354.494 1926.56 362.062C1926.57 362.882 1926.58 363.701 1926.59 364.545C1926.99 379.976 1931.78 395.528 1942.64 406.855C1958.21 421.006 1977.7 427.423 1997.37 433.645C2055.82 452.143 2055.82 452.143 2079 470C2080.38 471.04 2080.38 471.04 2081.8 472.102C2102.97 488.657 2113.95 510.608 2117.38 536.911C2121.53 573.569 2116.46 607.43 2093.4 637.066C2068.54 667.472 2032.92 685.08 1994.14 689.791C1990.67 690.13 1987.21 690.182 1983.72 690.203C1982.95 690.21 1982.18 690.217 1981.38 690.224C1978.9 690.242 1976.42 690.248 1973.94 690.25C1973.09 690.251 1972.24 690.251 1971.36 690.252C1930.91 690.201 1883.35 681.205 1852.58 652.715C1848.21 647.979 1845.58 643.487 1845 637C1847.39 622.841 1855.77 609.786 1866 600C1866.6 599.416 1867.21 598.832 1867.83 598.23C1871.13 596.357 1873.24 596.506 1877 597C1879.99 598.358 1882.65 600.119 1885.38 601.938C1886.97 602.954 1888.57 603.967 1890.17 604.977C1890.97 605.486 1891.78 605.996 1892.61 606.521C1925.02 626.561 1962.72 634.022 2000.29 626.004C2015.93 621.772 2030.17 614.296 2039.19 600.375C2048.09 584.806 2049.43 564.188 2045.88 546.812C2041.82 532.346 2032.69 521.696 2020 514C2019.45 513.665 2018.9 513.331 2018.33 512.986C2000.69 502.504 1980.91 496.403 1961.38 490.5C1925.32 479.581 1885.93 463.633 1866.75 428.875C1852.04 400.741 1851.01 364.168 1859.9 334.163C1864.86 318.532 1873.35 305.354 1884 293C1884.97 291.88 1884.97 291.88 1885.95 290.738C1931.08 242.477 2040.19 235.341 2092.31 276.062Z"></path>
<path fill="black" d="M3555.79 275.973C3558.86 278.794 3560.71 281.325 3561.43 285.473C3561.46 301.045 3553.77 316.917 3543 328C3540.14 330.332 3537.59 332.133 3533.75 331.812C3530.16 330.751 3526.98 329.06 3523.69 327.312C3494.32 312.251 3459.6 306.177 3427.54 316.066C3412.65 321.321 3401.52 329.653 3393.66 343.324C3387.99 355.825 3389.72 372.968 3393.75 385.742C3399.72 401.263 3409.69 411.062 3424 419C3424.77 419.438 3425.53 419.876 3426.33 420.327C3435.63 425.326 3445.56 428.423 3455.57 431.719C3524.11 454.35 3524.11 454.35 3550 476C3550.69 476.541 3551.38 477.083 3552.09 477.641C3570.97 493.017 3578.44 516.911 3581.61 540.159C3582.24 546.341 3582.34 552.493 3582.32 558.704C3582.31 560.867 3582.34 563.028 3582.36 565.191C3582.51 596.941 3569.57 624.16 3548 647C3547.26 647.812 3546.53 648.624 3545.77 649.461C3522.37 674.307 3485.05 689.019 3451.19 690.124C3405.02 691.096 3351.45 685.391 3316.1 652.121C3311.65 647.624 3309.27 643.792 3308.84 637.473C3309.69 624.031 3319.86 609.274 3329 600C3332.82 597.128 3335.27 596.631 3340 597C3342.58 598.142 3342.58 598.142 3345.17 599.746C3346.13 600.332 3347.1 600.918 3348.1 601.522C3349.63 602.47 3349.63 602.47 3351.19 603.438C3386.87 624.869 3425.02 635.072 3466.44 625.312C3481.02 621.275 3494.14 614.101 3502.44 601.062C3511.68 584.021 3513.68 564.02 3509.04 545.254C3503.4 527.633 3491.35 517.368 3475.29 509.016C3470.08 506.428 3464.78 504.243 3459.34 502.188C3458.43 501.842 3457.52 501.497 3456.58 501.141C3447.56 497.764 3438.42 494.821 3429.24 491.928C3413.82 487.054 3398.53 482.171 3384 475C3383.24 474.631 3382.48 474.261 3381.7 473.881C3368.28 467.268 3356.93 459.271 3346 449C3345.39 448.461 3344.77 447.922 3344.14 447.367C3327.91 432.519 3320.65 408.348 3319 387C3317.41 350.712 3323.73 319.731 3348.75 291.902C3360.32 279.494 3374.61 270.895 3390 264C3391.56 263.294 3391.56 263.294 3393.16 262.574C3439.24 243.391 3514.72 245.862 3555.79 275.973Z"></path>
<path fill="black" d="M2405.62 278.262C2408.55 281.944 2409.33 285.375 2408.94 290C2407.21 304.984 2398.97 319.813 2388 330C2385.57 331.662 2384.59 332.082 2381.65 331.671C2379.04 331.011 2376.94 330.142 2374.55 328.926C2373.71 328.508 2372.87 328.091 2372.01 327.66C2371.12 327.216 2370.23 326.771 2369.31 326.312C2359.76 321.669 2350.26 317.776 2340 315C2339.35 314.824 2338.71 314.647 2338.04 314.465C2313.04 308.042 2283.44 310.029 2260.81 322.75C2249.6 329.957 2241.93 338.368 2238.33 351.426C2235.71 371.749 2240.75 389.268 2252.89 405.527C2266.26 421.176 2289.56 427.587 2308.38 433.754C2325.9 439.499 2343.21 445.316 2360 453C2360.9 453.41 2361.79 453.819 2362.72 454.241C2378.22 461.43 2391.75 469.96 2404 482C2404.7 482.683 2405.39 483.366 2406.11 484.07C2426.5 505.485 2430.6 537.57 2430.15 565.871C2429.16 600.067 2414.53 629.664 2389.81 653.125C2369.15 671.229 2344.01 683.146 2317 688C2316.02 688.177 2315.03 688.355 2314.02 688.537C2304.17 690.135 2294.51 690.358 2284.56 690.312C2283.31 690.31 2283.31 690.31 2282.03 690.307C2249.29 690.187 2217.36 683.815 2188 669C2187 668.506 2186.01 668.013 2184.98 667.504C2175.06 662.38 2161.35 653.816 2157 643C2154.44 632.329 2160.84 621.943 2166 613C2168.41 609.35 2170.96 606.132 2174 603C2174.6 602.364 2175.19 601.729 2175.81 601.074C2178.7 598.27 2180.07 597.134 2184.18 596.539C2189.24 597.15 2192.32 599.22 2196.5 602C2198.1 603.019 2199.7 604.034 2201.31 605.047C2202.1 605.55 2202.89 606.054 2203.71 606.572C2236.07 626.749 2273.9 633.933 2311.42 625.941C2327.92 621.6 2342.11 613.932 2351 599C2356.55 587.92 2358.38 577.432 2358.31 565.125C2358.31 564.067 2358.3 563.008 2358.3 561.917C2358.19 554.596 2357.7 547.878 2355 541C2354.52 539.741 2354.52 539.741 2354.04 538.457C2345.53 518.992 2324.96 509.301 2306.27 501.922C2295.39 497.759 2284.38 494.073 2273.22 490.724C2239.24 480.52 2198.4 465.072 2179.84 432.305C2173.06 419.659 2168.74 406.262 2167 392C2166.89 391.181 2166.78 390.363 2166.66 389.52C2163.08 358.27 2168.72 325.942 2188.6 300.867C2189.39 299.921 2190.18 298.975 2191 298C2191.84 296.992 2192.69 295.984 2193.56 294.945C2214.58 270.622 2247.37 256.318 2279 253C2279.88 252.89 2280.77 252.781 2281.68 252.668C2319.28 248.674 2375.98 251.485 2405.62 278.262Z"></path>
<path fill="black" d="M2178.94 763.688C2180.4 763.663 2180.4 763.663 2181.9 763.639C2187.35 763.635 2191.3 763.901 2196 767C2198 769 2198 769 2198.25 771.229C2198.24 772.632 2198.24 772.632 2198.24 774.062C2198.24 775.131 2198.25 776.2 2198.25 777.302C2198.24 779.076 2198.24 779.076 2198.23 780.885C2198.23 782.144 2198.23 783.403 2198.23 784.701C2198.23 788.113 2198.22 791.525 2198.2 794.937C2198.19 798.137 2198.19 801.336 2198.19 804.536C2198.18 813.899 2198.15 823.262 2198.13 832.625C2198.08 853.539 2198.04 874.453 2198 896C2249.48 896 2300.96 896 2354 896C2353.84 855.087 2353.84 855.087 2353.64 814.175C2353.62 806.263 2353.62 806.263 2353.62 802.559C2353.61 799.972 2353.6 797.385 2353.58 794.798C2353.55 790.879 2353.54 786.961 2353.55 783.042C2353.53 781.889 2353.52 780.736 2353.5 779.548C2353.54 771.764 2353.54 771.764 2355.9 767.828C2361.13 763.279 2366.68 763.634 2373.31 763.625C2374.23 763.601 2375.14 763.576 2376.08 763.551C2382.47 763.523 2386.54 764.622 2392 768C2393.23 770.457 2393.13 772.059 2393.14 774.808C2393.14 775.83 2393.15 776.851 2393.15 777.904C2393.15 779.034 2393.15 780.165 2393.15 781.33C2393.16 783.122 2393.16 783.122 2393.17 784.951C2393.18 788.277 2393.19 791.603 2393.19 794.93C2393.2 798.514 2393.21 802.097 2393.22 805.681C2393.24 814.34 2393.26 822.999 2393.27 831.659C2393.27 834.103 2393.28 836.548 2393.28 838.993C2393.31 854.166 2393.33 869.339 2393.34 884.513C2393.34 888.028 2393.35 891.544 2393.35 895.059C2393.35 895.933 2393.35 896.807 2393.35 897.707C2393.37 911.869 2393.4 926.03 2393.44 940.192C2393.48 954.722 2393.51 969.253 2393.51 983.784C2393.52 991.946 2393.53 1000.11 2393.56 1008.27C2393.59 1015.22 2393.6 1022.17 2393.59 1029.12C2393.58 1032.67 2393.59 1036.21 2393.61 1039.76C2393.64 1043.6 2393.62 1047.45 2393.61 1051.29C2393.62 1052.41 2393.64 1053.54 2393.65 1054.7C2393.57 1062.23 2393.57 1062.23 2390.65 1066.17C2385.44 1069.77 2380.35 1069.22 2374.25 1069.25C2373.27 1069.27 2372.3 1069.29 2371.29 1069.31C2365.43 1069.34 2361.09 1069.02 2356 1066C2353.91 1062.84 2353.75 1060.25 2353.76 1056.51C2353.76 1054.84 2353.76 1054.84 2353.75 1053.13C2353.76 1051.3 2353.76 1051.3 2353.77 1049.43C2353.77 1048.12 2353.77 1046.81 2353.77 1045.46C2353.77 1041.92 2353.78 1038.39 2353.8 1034.85C2353.81 1031.53 2353.81 1028.2 2353.81 1024.88C2353.82 1015.17 2353.85 1005.46 2353.88 995.75C2353.92 974.053 2353.96 952.355 2354 930C2302.52 930 2251.04 930 2198 930C2198.2 973.92 2198.2 973.92 2198.45 1017.84C2198.47 1026.33 2198.47 1026.33 2198.48 1030.3C2198.49 1033.08 2198.5 1035.85 2198.53 1038.63C2198.56 1042.18 2198.57 1045.72 2198.57 1049.26C2198.57 1051.18 2198.59 1053.09 2198.62 1055.01C2198.57 1063.33 2198.57 1063.33 2195.65 1066.73C2190.1 1069.39 2185.24 1069.22 2179.19 1069.25C2177.71 1069.28 2177.71 1069.28 2176.2 1069.31C2170.74 1069.34 2166.63 1069.23 2162 1066C2159.25 1062.98 2158.62 1061.04 2158.62 1056.98C2158.61 1055.45 2158.61 1055.45 2158.59 1053.89C2158.6 1052.21 2158.6 1052.21 2158.61 1050.51C2158.61 1049.32 2158.6 1048.13 2158.6 1046.9C2158.58 1043.61 2158.59 1040.31 2158.59 1037.01C2158.6 1033.45 2158.59 1029.89 2158.58 1026.33C2158.56 1019.36 2158.56 1012.39 2158.56 1005.42C2158.57 999.759 2158.57 994.095 2158.56 988.43C2158.56 987.625 2158.56 986.819 2158.56 985.989C2158.56 984.352 2158.55 982.716 2158.55 981.079C2158.54 965.725 2158.54 950.372 2158.56 935.018C2158.57 920.967 2158.55 906.915 2158.53 892.864C2158.51 878.441 2158.5 864.019 2158.5 849.596C2158.51 841.497 2158.5 833.398 2158.49 825.298C2158.47 818.404 2158.47 811.509 2158.49 804.614C2158.5 801.095 2158.5 797.577 2158.48 794.058C2158.47 790.246 2158.48 786.434 2158.5 782.622C2158.49 781.507 2158.48 780.392 2158.47 779.243C2158.54 771.767 2158.54 771.767 2160.88 767.854C2166.28 763.131 2172.14 763.665 2178.94 763.688Z"></path>
<path fill="black" d="M3198.09 745.346C3201.18 749.639 3200.57 754.128 3200.55 759.286C3200.56 760.438 3200.57 761.589 3200.58 762.776C3200.61 766.585 3200.61 770.394 3200.61 774.203C3200.62 776.843 3200.64 779.483 3200.66 782.123C3200.7 788.363 3200.72 794.603 3200.73 800.843C3200.75 807.948 3200.79 815.054 3200.83 822.159C3200.91 836.772 3200.97 851.386 3201 866C3201.93 865.257 3202.86 864.513 3203.81 863.748C3205.06 862.756 3206.31 861.765 3207.56 860.773C3208.16 860.285 3208.77 859.797 3209.4 859.295C3229.9 843.055 3253.28 836.489 3279.15 839.227C3295.72 841.615 3313.65 849.373 3324 863C3331.33 875.214 3335.09 887.89 3335.15 902.186C3335.16 903.219 3335.16 903.219 3335.17 904.272C3335.18 906.561 3335.19 908.849 3335.19 911.137C3335.2 912.785 3335.21 914.433 3335.22 916.081C3335.24 921.474 3335.26 926.866 3335.27 932.258C3335.28 934.117 3335.28 935.977 3335.29 937.836C3335.31 945.567 3335.33 953.298 3335.34 961.029C3335.36 972.1 3335.39 983.17 3335.45 994.24C3335.49 1002.03 3335.51 1009.82 3335.51 1017.62C3335.52 1022.27 3335.53 1026.92 3335.56 1031.57C3335.59 1035.94 3335.6 1040.32 3335.58 1044.69C3335.58 1046.29 3335.59 1047.9 3335.61 1049.5C3335.63 1051.69 3335.62 1053.88 3335.61 1056.07C3335.61 1057.91 3335.61 1057.91 3335.62 1059.78C3334.83 1063.9 3333.2 1065.38 3330 1068C3325.82 1069.64 3321.12 1069.22 3316.69 1069.25C3315.86 1069.27 3315.03 1069.29 3314.17 1069.31C3308.68 1069.35 3304.84 1068.68 3300 1066C3297.65 1062.47 3297.75 1061.01 3297.74 1056.82C3297.73 1055.53 3297.72 1054.23 3297.71 1052.9C3297.71 1051.46 3297.71 1050.03 3297.71 1048.59C3297.71 1047.08 3297.7 1045.57 3297.69 1044.06C3297.68 1040.8 3297.67 1037.54 3297.66 1034.28C3297.66 1029.13 3297.64 1023.97 3297.61 1018.81C3297.56 1007.85 3297.53 996.896 3297.5 985.938C3297.47 974.131 3297.43 962.325 3297.38 950.519C3297.35 945.399 3297.34 940.28 3297.33 935.161C3297.33 931.963 3297.31 928.766 3297.3 925.568C3297.29 924.094 3297.29 922.619 3297.29 921.145C3297.3 907.267 3296.27 894.921 3287 884C3287 883.34 3287 882.68 3287 882C3286.46 881.732 3285.91 881.464 3285.35 881.188C3283.67 880.341 3282.02 879.462 3280.37 878.562C3273.62 874.964 3267.63 872.708 3260 872C3259.15 871.917 3258.3 871.835 3257.43 871.75C3240.19 870.927 3225.13 878.463 3212.5 889.625C3210.98 891.062 3209.48 892.523 3208 894C3207.43 894.399 3206.86 894.797 3206.27 895.208C3202.86 897.871 3201.21 899.925 3200.36 904.229C3200.13 908.4 3200.13 912.52 3200.19 916.694C3200.19 918.295 3200.19 919.895 3200.19 921.495C3200.18 924.932 3200.2 928.368 3200.23 931.805C3200.28 937.238 3200.28 942.671 3200.27 948.104C3200.27 958.652 3200.31 969.199 3200.36 979.746C3200.42 993.183 3200.46 1006.62 3200.46 1020.06C3200.45 1025.46 3200.48 1030.86 3200.52 1036.26C3200.55 1039.62 3200.55 1042.98 3200.54 1046.33C3200.55 1047.89 3200.56 1049.45 3200.58 1051.01C3200.61 1053.13 3200.6 1055.25 3200.59 1057.38C3200.6 1058.57 3200.61 1059.76 3200.61 1060.98C3200 1064 3200 1064 3197.59 1066.37C3192.51 1069.57 3187.53 1069.21 3181.69 1069.25C3180.44 1069.28 3180.44 1069.28 3179.17 1069.31C3173.68 1069.35 3169.84 1068.68 3165 1066C3162.78 1062.67 3162.75 1061.63 3162.74 1057.74C3162.73 1056.64 3162.73 1055.55 3162.72 1054.42C3162.72 1053.21 3162.72 1052 3162.73 1050.75C3162.72 1049.47 3162.72 1048.19 3162.71 1046.87C3162.7 1043.31 3162.69 1039.74 3162.7 1036.18C3162.69 1032.34 3162.68 1028.5 3162.67 1024.66C3162.65 1016.26 3162.64 1007.86 3162.63 999.455C3162.63 994.211 3162.62 988.968 3162.62 983.725C3162.6 969.214 3162.58 954.702 3162.58 940.191C3162.58 939.262 3162.58 938.333 3162.58 937.376C3162.58 935.493 3162.58 933.609 3162.58 931.726C3162.58 930.791 3162.58 929.856 3162.57 928.893C3162.57 927.957 3162.57 927.021 3162.57 926.057C3162.57 910.883 3162.54 895.71 3162.51 880.536C3162.47 864.966 3162.45 849.395 3162.45 833.825C3162.45 825.079 3162.44 816.334 3162.41 807.589C3162.39 800.143 3162.38 792.697 3162.39 785.252C3162.4 781.451 3162.4 777.652 3162.38 773.852C3162.35 769.735 3162.37 765.619 3162.39 761.502C3162.37 760.297 3162.36 759.091 3162.35 757.85C3162.43 749.793 3162.43 749.793 3165.31 745.801C3173.81 740.109 3189.38 739.733 3198.09 745.346Z"></path>
<path fill="black" d="M2589 847C2589.92 847.407 2590.84 847.815 2591.79 848.234C2610.46 857.395 2622.63 875.396 2629.25 894.624C2633.94 909.414 2636.12 924.548 2637 940C2637.05 940.707 2637.09 941.414 2637.14 942.143C2637.71 951.877 2636.43 957.785 2630.44 965.375C2626.26 969.878 2626.26 969.878 2622.46 970.246C2621.44 970.244 2620.42 970.242 2619.36 970.24C2618.19 970.243 2617.02 970.246 2615.81 970.249C2613.87 970.238 2613.87 970.238 2611.9 970.227C2610.53 970.226 2609.16 970.227 2607.79 970.228C2604.07 970.228 2600.35 970.217 2596.63 970.203C2592.74 970.19 2588.85 970.189 2584.97 970.187C2577.6 970.18 2570.24 970.164 2562.88 970.144C2554.49 970.122 2546.11 970.111 2537.73 970.101C2520.49 970.08 2503.24 970.045 2486 970C2486.44 972.989 2486.9 975.977 2487.35 978.965C2487.48 979.799 2487.6 980.634 2487.73 981.494C2490.41 998.939 2496.17 1015.34 2510.23 1026.82C2527.63 1039.07 2550.98 1040.21 2571.4 1036.81C2583.47 1034.1 2594.65 1029.56 2605.63 1023.9C2613.17 1020.1 2613.17 1020.1 2618 1021C2624.09 1025.68 2628.71 1032.78 2630.55 1040.22C2630.97 1043.88 2630.67 1046.08 2628.47 1049.1C2608.55 1068.32 2574.63 1071.53 2548.43 1071.35C2522.5 1070.83 2494.42 1065.56 2474.89 1047.04C2451.64 1021.87 2445.77 989.954 2445.75 956.688C2445.75 955.841 2445.75 954.994 2445.75 954.121C2445.76 941.206 2446.19 928.656 2449 916C2449.16 915.245 2449.32 914.49 2449.49 913.712C2454.7 890.153 2466.55 867.135 2487.35 853.781C2516.74 835.876 2557.52 832.789 2589 847ZM2500 891C2490.07 903.712 2486 922.223 2486 938C2522.63 938 2559.26 938 2597 938C2597 918.289 2594.52 898.705 2581 883.312C2570.16 873.145 2555.82 870.31 2541.49 870.688C2524.78 871.556 2510.86 878.202 2500 891Z"></path>
<path fill="black" d="M2774 845C2775.05 845.374 2776.1 845.748 2777.18 846.133C2789.02 850.676 2800.03 858.027 2809 867C2809 866.42 2809.01 865.841 2809.01 865.243C2809.05 862.599 2809.12 859.956 2809.19 857.312C2809.2 855.944 2809.2 855.944 2809.21 854.549C2809.36 849.935 2809.49 847.672 2812.36 843.918C2817.41 840.249 2822.32 840.783 2828.31 840.75C2829.72 840.719 2829.72 840.719 2831.15 840.688C2836.48 840.657 2840.51 840.798 2845 844C2848.14 848.131 2848.38 851.292 2848.38 856.414C2848.38 857.152 2848.39 857.889 2848.39 858.649C2848.4 861.116 2848.39 863.582 2848.39 866.049C2848.39 867.82 2848.39 869.592 2848.4 871.363C2848.41 875.178 2848.42 878.993 2848.41 882.808C2848.4 888.859 2848.42 894.909 2848.44 900.96C2848.48 913.827 2848.49 926.695 2848.5 939.562C2848.51 953.405 2848.53 967.247 2848.57 981.089C2848.59 987.083 2848.59 993.078 2848.59 999.073C2848.58 1002.83 2848.6 1006.6 2848.61 1010.36C2848.61 1012.08 2848.61 1013.8 2848.61 1015.52C2848.57 1025.53 2849.2 1035.11 2850.95 1044.98C2853.5 1059.71 2853.5 1059.71 2850.35 1064.52C2843.35 1068.94 2833.13 1070.38 2825 1069C2817.8 1064.41 2816.08 1054.7 2814.25 1046.88C2813.83 1044.92 2813.41 1042.96 2813 1041C2812.3 1041.69 2811.59 1042.38 2810.87 1043.09C2790.99 1062.17 2767.82 1071.56 2740.16 1071.21C2722.66 1070.7 2705.59 1064.33 2692.75 1052.25C2674.95 1033.25 2674.68 1009.91 2674.7 985.449C2674.7 983.062 2674.69 980.675 2674.69 978.289C2674.68 973.302 2674.68 968.315 2674.68 963.328C2674.69 956.977 2674.67 950.627 2674.65 944.276C2674.64 939.351 2674.63 934.425 2674.64 929.5C2674.64 927.16 2674.63 924.82 2674.62 922.481C2674.54 900.607 2675.46 879.063 2691 862C2691.62 861.303 2692.24 860.605 2692.87 859.887C2697.65 854.777 2702.82 851.248 2709 848C2709.71 847.62 2710.42 847.239 2711.15 846.848C2729.43 837.858 2755.17 837.842 2774 845ZM2721.64 885.84C2714.73 894.961 2712.86 903.646 2712.82 914.74C2712.82 915.717 2712.81 916.693 2712.8 917.699C2712.78 920.926 2712.77 924.152 2712.76 927.379C2712.76 928.485 2712.75 929.59 2712.75 930.73C2712.73 936.585 2712.71 942.441 2712.71 948.297C2712.69 954.324 2712.66 960.35 2712.62 966.376C2712.59 971.029 2712.59 975.681 2712.58 980.334C2712.58 982.554 2712.57 984.774 2712.55 986.994C2712.28 1007.94 2712.28 1007.94 2722.03 1026.04C2731.11 1035.08 2742.52 1038.6 2755.11 1039.09C2772.62 1038.7 2788.54 1031.19 2801 1019C2801.72 1018.47 2802.45 1017.94 2803.2 1017.39C2807.86 1013.39 2810.11 1010.13 2810.84 1004.06C2811.28 997.747 2811.2 991.438 2811.13 985.117C2811.13 982.774 2811.13 980.431 2811.14 978.088C2811.14 973.19 2811.11 968.294 2811.06 963.397C2811 957.131 2811.01 950.867 2811.04 944.601C2811.06 939.767 2811.04 934.934 2811.02 930.101C2811.01 927.791 2811.01 925.481 2811.02 923.171C2811.02 919.939 2810.99 916.711 2810.94 913.48C2810.95 912.06 2810.95 912.06 2810.97 910.611C2810.79 903.325 2808.17 899.935 2803 895C2801.97 893.859 2800.95 892.713 2799.94 891.562C2787.61 879.537 2771.09 872.741 2753.95 872.751C2741.66 872.958 2730.19 876.772 2721.64 885.84Z"></path>
<path fill="black" d="M3691.76 782.363C3693.83 784.379 3694.91 786.312 3695.28 789.18C3694.94 798.002 3690.26 807.827 3684 814C3679.67 815.367 3677.58 815.23 3673.34 813.559C3672.05 812.867 3670.77 812.159 3669.5 811.438C3668.09 810.688 3666.68 809.943 3665.27 809.203C3664.56 808.83 3663.85 808.457 3663.12 808.072C3634.5 793.567 3599.95 793.165 3569.7 802.89C3550.84 809.405 3535.79 821.937 3526.75 839.75C3506.56 881.512 3506.76 938.167 3521.51 981.617C3528.98 1002.2 3542.52 1017.3 3562 1027C3586.05 1038.01 3616.48 1039.58 3642 1033C3643.15 1032.71 3644.3 1032.41 3645.48 1032.11C3655.27 1029.2 3664.27 1024.64 3673.35 1020.01C3674.89 1019.24 3674.89 1019.24 3676.47 1018.45C3677.85 1017.74 3677.85 1017.74 3679.26 1017.02C3682.38 1015.86 3684.7 1015.72 3688 1016C3694.29 1020.38 3698.45 1028.98 3701 1036C3701.39 1040.64 3700.87 1043.4 3697.92 1047.14C3675.6 1068.74 3635.58 1071.5 3606.57 1071.36C3594.57 1071.15 3582.82 1070.06 3571 1068C3570.23 1067.87 3569.45 1067.73 3568.65 1067.59C3540.55 1062.47 3514.17 1048.16 3497.41 1024.65C3467.31 980.14 3465.59 917.154 3475.27 866.013C3481.76 834.012 3495.84 804.522 3523 785C3567.62 755.935 3647.56 748.155 3691.76 782.363Z"></path>
<path fill="black" d="M3826.25 838.688C3827.42 838.692 3828.6 838.696 3829.81 838.7C3855.13 839.027 3878.01 846.82 3896.54 864.41C3908.95 877.521 3916.61 894.117 3920.81 911.5C3921.01 912.305 3921.2 913.11 3921.4 913.939C3924.51 927.785 3925.38 941.554 3925.31 955.688C3925.31 956.471 3925.31 957.255 3925.31 958.062C3925.27 970.565 3924.64 982.739 3922 995C3921.78 996.023 3921.78 996.023 3921.56 997.067C3916.21 1021.33 3904.52 1043.12 3883.35 1057C3857.23 1072.59 3824.3 1074.93 3795 1068C3780.67 1064.37 3768.06 1057.82 3757 1048C3755.97 1047.11 3755.97 1047.11 3754.92 1046.21C3740.87 1033.24 3733.38 1014.21 3729 996C3728.83 995.318 3728.67 994.636 3728.5 993.934C3723.05 970.156 3723.14 939.678 3729 916C3729.2 915.183 3729.4 914.365 3729.6 913.523C3734.05 895.868 3741.15 880.842 3753 867C3753.63 866.252 3754.27 865.505 3754.92 864.734C3772.79 845.343 3800.86 838.562 3826.25 838.688ZM3781.25 888.016C3767.21 906.632 3764.63 930.115 3764.68 952.73C3764.69 955.233 3764.66 957.735 3764.64 960.238C3764.55 982.432 3767.91 1007.28 3783.5 1024.25C3796.09 1036.09 3812.42 1039.68 3829.3 1039.29C3845.32 1038.04 3858.45 1033.06 3869.63 1021.44C3877.53 1011.9 3881.65 1000.01 3884 988C3884.18 987.12 3884.36 986.24 3884.54 985.333C3886.17 976.188 3886.34 967.178 3886.32 957.918C3886.31 955.334 3886.34 952.75 3886.36 950.166C3886.45 926.126 3882.44 902.368 3865.41 884.258C3853.5 873.085 3837.2 870.536 3821.45 870.793C3806.29 871.323 3791.66 876.713 3781.25 888.016Z"></path>
<path fill="black" d="M3055.44 786.812C3056.73 786.794 3056.73 786.794 3058.04 786.775C3059.29 786.772 3059.29 786.772 3060.56 786.77C3061.32 786.765 3062.07 786.761 3062.85 786.757C3065.34 787.038 3066.89 787.658 3069 789C3071.16 792.243 3071.25 793.101 3071.23 796.839C3071.23 797.819 3071.23 798.8 3071.23 799.811C3071.22 800.867 3071.21 801.923 3071.2 803.012C3071.19 804.095 3071.19 805.178 3071.19 806.295C3071.18 809.759 3071.15 813.223 3071.13 816.688C3071.12 819.035 3071.11 821.382 3071.1 823.729C3071.08 829.486 3071.04 835.243 3071 841C3072.13 840.984 3073.25 840.969 3074.41 840.952C3078.59 840.898 3082.78 840.864 3086.96 840.835C3088.77 840.82 3090.58 840.8 3092.39 840.774C3094.99 840.737 3097.6 840.72 3100.2 840.707C3101.41 840.684 3101.41 840.684 3102.64 840.66C3107.23 840.659 3110.33 840.934 3114 844C3116.81 848.165 3116.33 852.588 3116.31 857.438C3116.33 858.284 3116.35 859.13 3116.36 860.002C3116.37 864.845 3116.11 868.044 3113 872C3112 873 3112 873 3108.12 873.114C3106.39 873.113 3104.66 873.108 3102.93 873.098C3102.03 873.096 3101.12 873.095 3100.18 873.093C3097.27 873.088 3094.35 873.075 3091.44 873.062C3089.47 873.057 3087.5 873.053 3085.53 873.049C3080.68 873.038 3075.84 873.021 3071 873C3071.06 891.438 3071.14 909.875 3071.24 928.313C3071.28 936.875 3071.32 945.437 3071.35 953.999C3071.37 961.466 3071.4 968.932 3071.45 976.399C3071.47 980.349 3071.49 984.298 3071.5 988.248C3071.5 991.975 3071.52 995.701 3071.55 999.427C3071.57 1001.43 3071.57 1003.43 3071.56 1005.43C3071.65 1014.11 3071.81 1024.36 3077.31 1031.56C3082.8 1036.54 3088.2 1038.14 3095.44 1038.12C3096.49 1038.12 3097.54 1038.12 3098.62 1038.12C3103.18 1037.96 3107.67 1037.38 3112.19 1036.73C3115 1037 3115 1037 3117.27 1039.16C3121.18 1045.58 3123.01 1053.54 3122 1061C3119.01 1066.11 3116.07 1067.78 3110.48 1069.46C3091.85 1073.54 3072.48 1071.84 3056 1062C3045.17 1054.9 3038.53 1045.46 3035.47 1032.79C3033.85 1024.81 3033.73 1017.01 3033.77 1008.89C3033.77 1007.4 3033.77 1005.91 3033.77 1004.42C3033.77 1000.41 3033.78 996.403 3033.8 992.393C3033.81 988.191 3033.81 983.988 3033.81 979.785C3033.82 971.842 3033.84 963.898 3033.86 955.955C3033.88 946.905 3033.89 937.856 3033.9 928.806C3033.92 910.204 3033.96 891.602 3034 873C3033.23 873.021 3032.47 873.042 3031.68 873.063C3028.2 873.147 3024.73 873.199 3021.25 873.25C3020.04 873.284 3018.84 873.317 3017.59 873.352C3015.85 873.371 3015.85 873.371 3014.08 873.391C3013.01 873.412 3011.94 873.433 3010.84 873.454C3007.31 872.889 3006.18 871.783 3004 869C3001.76 861.52 3001.79 851.188 3005 844C3008.64 841.271 3011.23 840.635 3015.74 840.707C3017.34 840.722 3017.34 840.722 3018.97 840.736C3020.63 840.774 3020.63 840.774 3022.31 840.812C3023.44 840.826 3024.56 840.84 3025.71 840.854C3028.48 840.889 3031.24 840.938 3034 841C3034.08 839.674 3034.08 839.674 3034.16 838.321C3034.72 829.198 3035.51 820.123 3036.57 811.044C3036.73 809.581 3036.89 808.117 3037.04 806.652C3037.27 804.493 3037.52 802.336 3037.77 800.18C3037.91 798.919 3038.05 797.658 3038.2 796.359C3039.1 792.59 3040.28 790.726 3043 788C3047.16 786.613 3051.08 786.816 3055.44 786.812Z"></path>
<path fill="black" d="M2941.69 745.914C2945.06 750.415 2944.68 754.201 2944.61 759.688C2944.62 761.322 2944.62 761.322 2944.63 762.99C2944.64 766.648 2944.62 770.305 2944.6 773.963C2944.6 776.583 2944.6 779.203 2944.61 781.823C2944.62 787.47 2944.61 793.117 2944.59 798.764C2944.56 806.943 2944.57 815.121 2944.58 823.3C2944.6 836.588 2944.6 849.877 2944.59 863.165C2944.58 863.96 2944.58 864.756 2944.58 865.575C2944.58 868.796 2944.58 872.018 2944.57 875.239C2944.56 884.09 2944.55 892.941 2944.55 901.792C2944.55 902.98 2944.55 902.98 2944.54 904.192C2944.54 917.421 2944.54 930.65 2944.56 943.879C2944.57 952.031 2944.56 960.182 2944.54 968.333C2944.52 973.928 2944.52 979.521 2944.53 985.116C2944.53 988.338 2944.53 991.559 2944.51 994.781C2943.55 1014.42 2943.55 1014.42 2950.68 1032.08C2955.79 1037.1 2961.67 1038.09 2968.63 1038.19C2974.21 1038.13 2979.66 1037.52 2985.19 1036.73C2988 1037 2988 1037 2990.27 1039.16C2994.18 1045.58 2996.01 1053.54 2995 1061C2992.01 1066.11 2989.07 1067.78 2983.48 1069.46C2963.94 1073.74 2944.13 1071.47 2927 1061C2915.27 1052.29 2910.52 1042.63 2907.46 1028.5C2906.82 1023.59 2906.85 1018.74 2906.85 1013.79C2906.85 1012.66 2906.85 1011.52 2906.84 1010.35C2906.83 1006.55 2906.83 1002.75 2906.82 998.955C2906.82 996.231 2906.81 993.508 2906.8 990.784C2906.78 982.615 2906.77 974.445 2906.76 966.275C2906.76 962.428 2906.75 958.58 2906.75 954.732C2906.73 941.943 2906.72 929.154 2906.71 916.366C2906.71 913.05 2906.71 909.735 2906.71 906.42C2906.7 905.596 2906.7 904.772 2906.7 903.923C2906.7 890.557 2906.67 877.19 2906.64 863.824C2906.6 850.101 2906.59 836.378 2906.58 822.654C2906.58 814.949 2906.57 807.244 2906.55 799.539C2906.53 792.982 2906.52 786.425 2906.53 779.868C2906.53 776.521 2906.53 773.176 2906.51 769.829C2906.49 766.205 2906.5 762.581 2906.51 758.957C2906.5 757.895 2906.49 756.833 2906.48 755.738C2906.54 748.632 2906.54 748.632 2908.91 745.367C2917.52 739.744 2933.39 740.005 2941.69 745.914Z"></path>
<path fill="black" d="M3978.94 1020.69C3980 1020.67 3981.06 1020.66 3982.15 1020.64C3988.21 1020.63 3992.67 1021.02 3998 1024C4001 1026.99 4000.34 1030.35 4000.37 1034.37C4000.39 1035.61 4000.39 1035.61 4000.4 1036.89C4000.41 1038.65 4000.42 1040.41 4000.43 1042.17C4000.44 1044.86 4000.49 1047.55 4000.54 1050.24C4000.55 1051.95 4000.55 1053.66 4000.56 1055.37C4000.58 1056.17 4000.6 1056.98 4000.62 1057.8C4000.59 1061.74 4000.41 1063.57 3997.65 1066.48C3991.75 1069.87 3985.82 1069.22 3979.19 1069.25C3978.01 1069.27 3976.84 1069.29 3975.62 1069.31C3964.81 1069.36 3964.81 1069.36 3960 1066C3957.44 1063.44 3957.74 1061.73 3957.7 1058.23C3957.7 1057.45 3957.7 1056.66 3957.7 1055.85C3957.7 1055.04 3957.69 1054.23 3957.69 1053.4C3957.68 1051.69 3957.68 1049.97 3957.68 1048.26C3957.69 1045.64 3957.66 1043.02 3957.64 1040.41C3957.64 1038.74 3957.64 1037.08 3957.64 1035.41C3957.63 1034.63 3957.62 1033.85 3957.61 1033.04C3957.64 1029.78 3957.76 1027.43 3959.37 1024.55C3964.51 1019.66 3972.33 1020.67 3978.94 1020.69Z"></path>
</svg>
